<svg width="187" height="58" viewBox="0 0 187 58" fill="none" xmlns="http://www.w3.org/2000/svg">
<path d="M7.992 21.224C10.568 21.224 12.44 21.728 13.608 22.736C14.792 23.728 15.384 25.264 15.384 27.344C15.384 29.408 14.776 30.92 13.56 31.88C12.36 32.84 10.52 33.32 8.04 33.32H5.808V38H2.064V21.224H7.992ZM8.328 30.08C9.576 30.08 10.424 29.832 10.872 29.336C11.32 28.824 11.544 28.088 11.544 27.128C11.544 26.152 11.248 25.464 10.656 25.064C10.08 24.648 9.176 24.44 7.944 24.44H5.808V30.08H8.328ZM26.3742 32.048V25.088H29.9982V38H26.3742V36.296C25.4782 37.56 24.3182 38.192 22.8942 38.192C21.4862 38.192 20.3022 37.752 19.3422 36.872C18.3822 35.976 17.9022 34.656 17.9022 32.912V25.088H21.5262V32.12C21.5262 34.104 22.2542 35.096 23.7102 35.096C24.4302 35.096 25.0542 34.84 25.5822 34.328C26.1102 33.8 26.3742 33.04 26.3742 32.048ZM40.9378 24.872C42.5058 24.872 43.8738 25.488 45.0418 26.72C46.2098 27.936 46.7938 29.504 46.7938 31.424C46.7938 33.344 46.1938 34.952 44.9938 36.248C43.7938 37.544 42.4258 38.192 40.8898 38.192C39.3698 38.192 38.1058 37.56 37.0978 36.296V38H33.4978V20.192H37.0978V26.528C38.0898 25.424 39.3698 24.872 40.9378 24.872ZM37.0498 31.568C37.0498 32.608 37.3378 33.464 37.9138 34.136C38.5058 34.792 39.2178 35.12 40.0498 35.12C40.8818 35.12 41.6098 34.792 42.2338 34.136C42.8578 33.464 43.1698 32.608 43.1698 31.568C43.1698 30.528 42.8658 29.656 42.2578 28.952C41.6498 28.248 40.9218 27.896 40.0738 27.896C39.2258 27.896 38.5058 28.248 37.9138 28.952C37.3378 29.64 37.0498 30.512 37.0498 31.568ZM53.1821 38H49.5821V20.192H53.1821V38ZM60.2899 38H56.6899V25.088H60.2899V38ZM56.9779 23.456C56.5779 23.04 56.3779 22.536 56.3779 21.944C56.3779 21.352 56.5779 20.856 56.9779 20.456C57.3939 20.04 57.8979 19.832 58.4899 19.832C59.0819 19.832 59.5779 20.04 59.9779 20.456C60.3939 20.856 60.6019 21.352 60.6019 21.944C60.6019 22.536 60.3939 23.04 59.9779 23.456C59.5779 23.856 59.0819 24.056 58.4899 24.056C57.8979 24.056 57.3939 23.856 56.9779 23.456ZM73.5178 33.992C73.5178 35.256 73.0458 36.272 72.1018 37.04C71.1738 37.808 69.9898 38.192 68.5498 38.192C67.5898 38.192 66.5898 38.024 65.5498 37.688C64.5098 37.336 63.5738 36.824 62.7418 36.152L64.3258 33.896C65.6698 34.936 67.1018 35.456 68.6218 35.456C69.0858 35.456 69.4538 35.368 69.7258 35.192C69.9978 35 70.1338 34.752 70.1338 34.448C70.1338 34.144 69.9418 33.864 69.5578 33.608C69.1898 33.352 68.6458 33.112 67.9258 32.888C67.2218 32.664 66.6778 32.472 66.2938 32.312C65.9258 32.152 65.5018 31.92 65.0218 31.616C64.0458 31.008 63.5578 30.112 63.5578 28.928C63.5578 27.728 64.0378 26.752 64.9978 26C65.9578 25.248 67.1978 24.872 68.7178 24.872C70.2378 24.872 71.7578 25.384 73.2778 26.408L71.9338 28.808C70.8138 28.04 69.6938 27.656 68.5738 27.656C67.4698 27.656 66.9178 27.96 66.9178 28.568C66.9178 28.904 67.0938 29.168 67.4458 29.36C67.7978 29.552 68.3818 29.776 69.1978 30.032C70.0138 30.288 70.5898 30.488 70.9258 30.632C71.2778 30.76 71.6938 30.968 72.1738 31.256C73.0698 31.8 73.5178 32.712 73.5178 33.992ZM80.5687 27.68V33.464C80.5687 33.96 80.6967 34.352 80.9527 34.64C81.2087 34.912 81.5127 35.048 81.8647 35.048C82.5367 35.048 83.1047 34.744 83.5687 34.136L84.9127 36.656C83.7927 37.68 82.6087 38.192 81.3607 38.192C80.1287 38.192 79.0807 37.784 78.2167 36.968C77.3687 36.152 76.9447 35.04 76.9447 33.632V27.68H75.4327V25.088H76.9447V21.224H80.5687V25.088H83.6887V27.68H80.5687Z" fill="#252B42"/>
</svg>
